<?xml version="1.0" standalone="no"?>
<!DOCTYPE svg PUBLIC "-//W3C//DTD SVG 20010904//EN"
 "http://www.w3.org/TR/2001/REC-SVG-20010904/DTD/svg10.dtd">
<svg version="1.0" xmlns="http://www.w3.org/2000/svg"
 width="75.000000pt" height="50.000000pt" viewBox="0 0 75.000000 50.000000"
 preserveAspectRatio="xMidYMid meet">
<metadata>
Created by potrace 1.16, written by Peter Selinger 2001-2019
</metadata>
<g transform="translate(0.000000,50.000000) scale(0.016667,-0.016340)"
fill="#000000" stroke="none">
<path d="M2448 2820 c-170 -27 -280 -71 -403 -159 l-50 -36 -166 4 c-185 3
-275 -9 -444 -60 -416 -128 -813 -469 -950 -818 -80 -204 -78 -474 3 -684 15
-38 34 -76 43 -86 9 -9 19 -23 22 -31 4 -11 6 -9 7 5 1 11 7 0 14 -25 28 -107
175 -264 333 -357 34 -20 46 -23 58 -13 20 17 10 34 -38 60 -62 35 -147 101
-192 152 -75 83 -105 120 -105 128 0 5 -6 13 -13 17 -13 8 -100 189 -112 233
-4 14 11 -3 34 -37 44 -66 137 -156 151 -148 5 3 12 -1 17 -9 13 -22 147 -85
215 -101 94 -22 358 -18 358 5 0 4 -51 10 -112 13 -288 16 -449 84 -563 238
-95 129 -141 266 -131 394 21 305 232 611 578 843 237 159 495 248 749 259
130 6 218 -1 205 -15 -4 -3 -62 -5 -129 -4 -199 5 -398 -41 -606 -139 -104
-49 -291 -166 -291 -182 0 -10 6 -6 80 43 78 53 260 142 361 178 166 59 415
96 515 78 l39 -8 -38 -34 c-20 -19 -37 -38 -37 -42 -1 -18 -48 -60 -75 -67
-25 -7 -27 -9 -9 -12 20 -4 19 -8 -25 -98 -35 -71 -51 -94 -67 -94 -33 -2
-142 -41 -155 -57 -14 -17 -2 -16 100 12 59 17 66 15 56 -15 -4 -14 -26 -26
-73 -42 -226 -73 -504 -257 -658 -436 -151 -174 -232 -339 -249 -510 -7 -74
-25 -92 -25 -25 1 84 52 253 127 420 9 20 -11 14 -25 -8 -64 -103 -123 -260
-137 -363 -5 -40 -9 -46 -21 -36 -8 6 -14 26 -14 43 0 49 46 237 75 311 15 36
25 69 22 71 -9 9 -65 -101 -92 -180 -14 -43 -29 -100 -32 -127 -3 -27 -9 -49
-14 -49 -13 0 -23 42 -20 85 3 37 41 199 56 238 4 9 3 17 -3 17 -13 0 -57
-111 -72 -185 -11 -53 -14 -57 -22 -35 -12 33 -1 115 33 235 15 55 26 102 24
104 -5 4 -43 -78 -61 -131 l-14 -43 6 70 c4 39 7 78 7 88 1 9 4 17 8 17 4 0
10 12 14 28 13 55 86 191 144 270 33 44 57 83 53 86 -12 13 -128 -145 -177
-241 -99 -195 -117 -371 -54 -538 26 -69 96 -166 151 -206 64 -47 193 -105
278 -124 108 -24 298 -22 427 4 237 49 504 173 688 320 107 86 281 274 270
292 -4 5 1 12 9 15 9 3 16 12 16 20 0 8 4 14 10 14 5 0 28 35 49 79 110 218
125 418 43 584 l-38 77 28 0 c26 0 32 -7 59 -64 51 -110 56 -247 14 -445 -16
-76 -12 -90 10 -38 28 68 47 181 48 287 1 91 -3 113 -25 168 -32 79 -15 65 53
-41 120 -186 163 -324 163 -527 1 -151 -13 -211 -80 -350 -143 -298 -453 -579
-797 -720 -48 -20 -84 -40 -80 -43 3 -4 -4 -6 -18 -6 -13 1 -67 -10 -119 -25
-206 -57 -430 -58 -606 -1 -97 30 -94 30 -94 1 0 -20 9 -28 54 -45 178 -66
445 -69 667 -6 88 26 111 37 105 51 -3 8 -1 14 4 14 6 0 10 -4 10 -10 0 -17
22 -11 121 33 119 54 198 101 319 191 52 39 98 72 101 74 3 1 38 -15 76 -37
108 -61 253 -120 381 -154 109 -28 129 -31 297 -31 158 -1 190 2 263 22 286
78 502 291 614 607 39 108 52 198 45 327 -14 281 -131 516 -380 763 -234 231
-498 381 -787 446 -98 22 -299 32 -382 19z m237 -20 c536 -61 1073 -492 1229
-988 14 -46 26 -91 25 -100 0 -9 -9 15 -20 53 -31 109 -121 283 -203 392 -40
54 -118 141 -172 194 -121 117 -246 204 -244 172 1 -5 37 -35 81 -68 106 -78
270 -250 337 -350 90 -135 153 -285 168 -397 7 -49 6 -50 -17 -44 -13 3 -18 3
-11 0 6 -3 9 -11 6 -16 -5 -7 -2 -8 6 -3 9 5 10 2 5 -14 -3 -12 -2 -21 4 -21
5 0 12 8 14 18 3 9 3 -19 0 -63 -3 -44 -10 -98 -16 -120 l-11 -40 -6 42 c-3
24 -9 46 -13 49 -8 8 -9 -15 -7 -91 1 -31 -5 -58 -14 -70 -15 -19 -15 -18 -16
17 0 20 -3 44 -6 53 -12 30 -24 -6 -24 -72 0 -34 -4 -65 -10 -68 -6 -4 -10 6
-10 24 0 16 -4 32 -9 35 -10 7 -21 -27 -21 -66 0 -31 -17 -46 -23 -21 -3 14
-7 10 -17 -14 -20 -53 -30 -38 -30 45 0 111 -23 202 -79 317 -160 328 -510
628 -874 749 -121 40 -239 59 -371 59 -104 0 -121 -3 -133 -19 -8 -11 -13 -13
-13 -5 0 18 -48 8 -118 -24 -30 -14 -58 -23 -61 -20 -8 9 18 23 89 46 36 12
67 25 70 28 3 3 14 6 25 6 63 0 284 30 273 37 -7 4 -63 8 -124 8 -114 0 -229
-21 -293 -55 -17 -8 -31 -11 -31 -6 0 13 90 49 175 71 40 10 127 24 194 31
144 15 140 29 -9 29 -115 0 -214 -17 -286 -50 -53 -23 -72 -20 -26 4 86 45
308 91 457 97 20 0 20 0 0 9 -32 14 -214 11 -287 -5 -37 -7 -89 -23 -115 -35
-36 -16 -44 -17 -32 -5 37 37 263 94 384 96 28 0 59 4 69 8 18 7 18 8 -5 14
-70 19 -304 -4 -362 -35 -10 -5 -21 -8 -23 -5 -8 8 64 37 143 58 43 11 121 22
173 25 52 3 102 8 110 11 26 10 -29 21 -115 23 -97 2 -91 5 45 24 66 9 109 11
115 5 5 -5 26 -9 47 -9 105 0 313 -62 467 -140 55 -27 103 -50 106 -50 49 0
-179 116 -310 159 -355 114 -694 61 -847 -132 -84 -107 -112 -191 -112 -337 1
-120 23 -216 80 -339 44 -96 123 -223 134 -216 5 3 13 -7 19 -22 10 -27 10
-27 7 7 -2 20 -19 59 -41 90 -70 103 -155 298 -155 356 0 37 257 -2 353 -53
l52 -28 -1 -65 c-1 -49 -11 -88 -39 -160 -21 -52 -40 -116 -42 -142 -5 -49
-22 -67 -24 -25 -1 20 -2 20 -12 -5 -14 -37 -35 -43 -43 -13 -3 13 -12 30 -20
36 -13 10 -14 7 -9 -22 3 -18 11 -39 16 -46 8 -8 6 -18 -4 -33 -14 -20 -14
-19 -46 15 -18 20 -36 33 -41 30 -6 -4 -7 1 -3 11 4 12 3 15 -5 10 -19 -12
-14 -31 18 -71 33 -41 37 -57 17 -73 -10 -8 -23 1 -55 39 -41 46 -62 60 -62
40 0 -5 18 -33 40 -62 l40 -53 -22 -23 -22 -23 -33 32 c-42 41 -51 32 -17 -17
25 -37 25 -39 8 -52 -17 -12 -23 -9 -57 27 -62 65 -74 42 -15 -30 26 -32 27
-36 11 -47 -25 -19 -27 -17 -68 33 -20 25 -40 43 -42 40 -3 -3 9 -30 26 -60
30 -53 29 -83 -1 -48 -80 93 -178 289 -214 427 -23 90 -25 114 -21 235 4 112
9 149 31 215 49 145 139 286 256 400 l62 60 -37 -59 c-64 -101 -77 -140 -83
-251 -6 -121 12 -155 22 -42 14 152 66 269 160 363 90 89 209 144 361 163 99
12 128 12 230 1z m-11 -501 c497 -164 946 -654 946 -1030 0 -43 -3 -85 -6 -93
-3 -9 -38 -26 -78 -39 -101 -31 -318 -31 -456 2 -168 41 -397 140 -393 171 1
8 13 43 28 78 52 126 68 212 63 356 -4 103 -10 145 -28 196 -35 101 -114 247
-176 329 l-56 73 34 -7 c18 -4 73 -20 122 -36z m-1029 -376 c0 -135 4 -171 24
-243 30 -108 103 -263 170 -360 l51 -75 -27 -23 c-44 -35 -259 -138 -358 -171
-149 -49 -246 -65 -395 -66 -146 0 -248 18 -330 58 -44 21 -45 23 -48 74 -6
101 46 248 135 381 139 209 421 433 685 543 51 21 93 39 93 39 0 0 0 -71 0
-157z m2309 -435 c-8 -100 -50 -191 -129 -276 -75 -81 -46 -80 44 2 l34 31
-46 -90 c-90 -175 -243 -334 -390 -404 -122 -58 -206 -75 -367 -75 -223 1
-391 43 -618 155 -84 42 -120 65 -114 71 7 7 42 -6 109 -40 109 -55 204 -91
338 -128 114 -32 324 -44 406 -24 47 12 51 15 29 21 -14 4 -58 7 -99 8 -197 3
-492 76 -675 168 -62 31 -67 36 -53 50 14 14 25 10 119 -35 230 -114 378 -152
584 -152 146 0 204 6 204 21 0 5 -27 9 -60 9 -223 0 -508 64 -719 161 -80 37
-83 40 -67 58 16 17 19 17 104 -25 111 -55 251 -107 274 -101 10 3 18 1 18 -4
0 -5 5 -9 10 -9 6 0 10 12 10 26 0 24 -2 25 -17 13 -14 -12 -16 -12 -11 1 3
11 -15 20 -76 38 -45 13 -123 43 -174 67 l-93 44 16 24 16 25 115 -59 c139
-70 243 -106 256 -87 16 26 6 35 -75 61 -46 15 -125 47 -176 72 -85 41 -91 46
-81 65 6 12 14 20 18 18 149 -80 320 -144 447 -169 95 -18 327 -18 385 1 45
14 44 14 -105 21 -159 6 -271 24 -409 64 -88 25 -296 112 -296 124 0 3 4 12 9
19 6 11 31 3 112 -37 202 -98 377 -141 574 -141 145 0 241 21 345 76 90 47
180 141 222 231 29 61 33 79 37 188 5 113 5 117 13 60 4 -33 5 -95 2 -137z"/>
<path d="M3652 2095 c2 -5 40 -84 85 -175 44 -91 87 -182 94 -202 15 -45 55
-63 44 -20 -14 59 -76 197 -119 265 -42 67 -111 155 -104 132z"/>
<path d="M3675 1898 c34 -68 82 -175 106 -238 51 -138 64 -156 55 -78 -12 109
-83 268 -175 396 -56 76 -50 45 14 -80z"/>
<path d="M3580 1948 c0 -4 27 -59 59 -123 33 -64 79 -175 102 -246 48 -145 71
-161 45 -31 -18 90 -58 191 -110 278 -35 59 -95 135 -96 122z"/>
<path d="M3550 1863 c0 -3 24 -56 54 -118 51 -104 107 -258 122 -333 11 -53
24 -47 24 11 0 99 -74 286 -157 400 -34 45 -43 54 -43 40z"/>
<path d="M3564 1680 c54 -117 93 -228 117 -333 17 -77 29 -81 29 -10 0 117
-83 329 -162 417 l-38 41 54 -115z"/>
<path d="M2875 1943 c11 -3 28 -12 38 -21 15 -14 17 -39 17 -256 0 -260 -4
-280 -53 -289 -12 -2 21 -5 73 -5 75 0 89 2 67 10 -15 5 -29 19 -32 31 -3 12
-4 132 -3 267 l3 245 69 -1 c64 -1 71 -3 97 -32 36 -40 46 -94 28 -146 -18
-51 -52 -75 -118 -83 -41 -5 -50 -8 -34 -14 23 -9 60 -51 135 -159 60 -85 114
-121 183 -119 l40 1 -30 10 c-42 15 -77 49 -159 158 l-73 95 41 20 c79 39 111
163 59 233 -38 53 -74 62 -228 61 -77 -1 -131 -4 -120 -6z"/>
<path d="M1205 1680 c-23 -11 -48 -33 -58 -49 -21 -36 -22 -121 -2 -160 19
-38 71 -81 98 -81 19 0 19 -2 -9 -32 -17 -18 -54 -66 -83 -105 -55 -76 -93
-109 -139 -123 -24 -7 -23 -8 15 -9 85 -2 121 25 219 166 36 51 76 99 91 106
25 14 25 14 -25 20 -89 10 -122 47 -122 135 0 91 49 132 158 132 l42 0 0 -264
c0 -276 0 -278 -45 -289 -11 -2 23 -5 75 -5 52 0 84 3 70 7 -45 12 -50 39 -50
281 0 242 5 269 50 281 14 4 -36 7 -110 8 -116 1 -141 -2 -175 -19z"/>
<path d="M2918 896 c-4 -22 0 -25 51 -35 31 -6 92 -11 136 -12 44 -1 109 -2
145 -2 75 -1 140 10 140 23 0 6 -33 10 -74 10 -40 0 -95 3 -121 7 -37 5 -46 3
-40 -6 6 -10 2 -11 -16 -6 -13 4 -26 10 -29 14 -8 9 -34 7 -42 -4 -5 -6 -12
-4 -18 5 -6 10 -10 11 -10 3 0 -7 -4 -13 -10 -13 -5 0 -10 7 -10 16 0 8 -4 13
-9 10 -5 -4 -21 -2 -36 4 -14 5 -24 6 -21 2 2 -4 1 -14 -5 -22 -7 -13 -9 -12
-9 2 0 27 -17 30 -22 4z"/>
<path d="M840 812 c0 -27 154 -62 270 -62 92 0 274 30 291 47 5 5 -89 8 -209
8 -119 0 -247 4 -284 8 -43 5 -68 5 -68 -1z"/>
<path d="M1380 734 c-47 -7 -160 -16 -252 -19 -93 -3 -168 -9 -169 -13 -1 -16
94 -30 207 -31 124 -1 254 23 344 62 l35 15 -40 0 c-22 0 -78 -7 -125 -14z"/>
<path d="M1455 669 c-60 -11 -186 -22 -278 -25 -154 -6 -167 -8 -152 -23 12
-13 44 -17 156 -19 154 -4 234 6 354 45 145 46 115 55 -80 22z"/>
<path d="M1595 614 c-77 -17 -173 -28 -317 -36 -115 -6 -208 -15 -208 -19 0
-18 140 -32 279 -27 134 5 155 9 258 43 62 20 120 43 130 51 17 12 16 13 -7
13 -14 -1 -74 -12 -135 -25z"/>
</g>
</svg>
